<svg xmlns="http://www.w3.org/2000/svg" viewBox="0 0 192 192" width="192" height="192">
  <rect width="192" height="192" fill="#0a0a0a" rx="40"/>
  <!-- Jar lid -->
  <rect x="62" y="44" width="68" height="14" rx="4" fill="#abff4f"/>
  <!-- Jar neck -->
  <rect x="68" y="55" width="56" height="10" rx="2" fill="#abff4f" opacity="0.7"/>
  <!-- Jar body outline -->
  <path d="M58 68 Q54 68 52 80 L48 148 Q48 158 60 158 L132 158 Q144 158 144 148 L140 80 Q138 68 134 68 Z" fill="#1a1a1a" stroke="#abff4f" stroke-width="3"/>
  <!-- Jar fill (liquid ~65%) -->
  <clipPath id="jarClip">
    <path d="M58 68 Q54 68 52 80 L48 148 Q48 158 60 158 L132 158 Q144 158 144 148 L140 80 Q138 68 134 68 Z"/>
  </clipPath>
  <rect x="48" y="106" width="96" height="55" fill="#abff4f" opacity="0.25" clip-path="url(#jarClip)"/>
  <rect x="48" y="108" width="96" height="4" fill="#abff4f" opacity="0.4" clip-path="url(#jarClip)"/>
</svg>
